<svg width="25" height="16" viewBox="0 0 25 16" fill="none" xmlns="http://www.w3.org/2000/svg">
<path d="M1.19763 7.21616C0.627704 7.21616 0.165685 7.67818 0.165685 8.24811C0.165685 8.81804 0.627703 9.28005 1.19763 9.28005L1.19763 7.21616ZM23.9422 8.97781C24.3452 8.57481 24.3452 7.92141 23.9422 7.51841L17.3749 0.951146C16.9719 0.548146 16.3185 0.548146 15.9155 0.951146C15.5125 1.35415 15.5125 2.00754 15.9155 2.41054L21.7531 8.24811L15.9155 14.0857C15.5125 14.4887 15.5125 15.1421 15.9155 15.5451C16.3185 15.9481 16.9719 15.9481 17.3749 15.5451L23.9422 8.97781ZM1.19763 9.28005L23.2125 9.28006L23.2125 7.21616L1.19763 7.21616L1.19763 9.28005Z" fill="white"/>
</svg>
