<svg width="59" height="59" viewBox="0 0 59 59" fill="none" xmlns="http://www.w3.org/2000/svg">
<rect width="59" height="59" rx="13.7593" fill="#4A98FF"/>
<path d="M38.3235 23.3741L28.7474 27.8399C28.5141 27.9201 28.3003 28.0485 28.1198 28.2167C27.9394 28.3849 27.7963 28.5892 27.6999 28.8163C27.6034 29.0434 27.5558 29.2882 27.5601 29.5348C27.5644 29.7815 27.6205 30.0245 27.7247 30.2481C27.829 30.4717 27.9791 30.6709 28.1653 30.8327C28.3515 30.9946 28.5696 31.1155 28.8055 31.1876C29.0414 31.2596 29.2899 31.2813 29.5347 31.2512C29.7796 31.2211 30.0153 31.1398 30.2267 31.0127L43.034 25.04L42.2137 23.2806C37.8289 13.8767 29.4447 11.8498 22.8065 14.9455C20.9955 15.7773 19.3664 16.9583 18.0127 18.4208C16.6589 19.8834 15.6071 21.5988 14.9175 23.4687C14.2278 25.3385 13.914 27.3261 13.9939 29.3176C14.0738 31.309 14.5459 33.265 15.3831 35.0736C17.8486 40.3613 25.1109 47.347 37.7423 41.4564L47.0245 37.1277L45.5452 33.9549L36.263 38.2836C26.6282 42.7768 20.9743 38.4753 18.6729 33.5394C18.0211 32.1596 17.6493 30.6642 17.579 29.1398C17.5086 27.6153 17.7412 26.092 18.2631 24.658C18.7851 23.224 19.5861 21.9077 20.6199 20.7852C21.6536 19.6627 22.8997 18.7562 24.2859 18.1183C25.5468 17.5054 26.9192 17.1553 28.3196 17.0893C29.72 17.0233 31.1192 17.2427 32.4322 17.7343C33.7451 18.2259 34.9445 18.9794 35.9572 19.9489C36.97 20.9184 37.7751 22.0837 38.3235 23.3741V23.3741Z" fill="white"/>
</svg>
