<svg width="99" height="99" viewBox="0 0 99 99" fill="none" xmlns="http://www.w3.org/2000/svg">
<g clip-path="url(#clip0)">
<path d="M77.1031 99.2891L22.3526 99.3411C10.3075 99.352 0.444158 89.5079 0.430471 77.4628L0.378458 22.7123C0.367508 10.6672 10.2116 0.803869 22.2568 0.790181L77.0073 0.738168C89.0524 0.727218 98.9157 10.5714 98.9294 22.6165L98.9814 77.367C98.995 89.4148 89.1482 99.2781 77.1031 99.2891Z" fill="url(#paint0_radial)"/>
<path d="M77.1031 99.2891L22.3526 99.3411C10.3075 99.352 0.444158 89.5079 0.430471 77.4628L0.378458 22.7123C0.367508 10.6672 10.2116 0.803869 22.2568 0.790181L77.0073 0.738168C89.0524 0.727218 98.9157 10.5714 98.9294 22.6165L98.9814 77.367C98.995 89.4148 89.1482 99.2781 77.1031 99.2891Z" fill="url(#paint1_radial)"/>
<path d="M49.6813 69.2035C39.1172 69.2035 30.5186 60.6077 30.5186 50.0408C30.5186 39.474 39.1172 30.8782 49.6813 30.8782C60.2454 30.8782 68.8439 39.474 68.8439 50.0408C68.8439 60.6077 60.2454 69.2035 49.6813 69.2035ZM49.6813 36.3532C42.1339 36.3532 35.9936 42.4935 35.9936 50.0408C35.9936 57.5882 42.1339 63.7285 49.6813 63.7285C57.2286 63.7285 63.3689 57.5882 63.3689 50.0408C63.3689 42.4935 57.2286 36.3532 49.6813 36.3532Z" fill="white"/>
<path d="M70.2127 33.6158C72.4806 33.6158 74.319 31.7773 74.319 29.5095C74.319 27.2416 72.4806 25.4032 70.2127 25.4032C67.9449 25.4032 66.1064 27.2416 66.1064 29.5095C66.1064 31.7773 67.9449 33.6158 70.2127 33.6158Z" fill="white"/>
<path d="M66.1064 85.6288H33.2561C22.692 85.6288 14.0935 77.0329 14.0935 66.4661V33.6158C14.0935 23.049 22.692 14.4531 33.2561 14.4531H66.1064C76.6705 14.4531 85.2691 23.049 85.2691 33.6158V66.4661C85.2691 77.0329 76.6705 85.6288 66.1064 85.6288ZM33.2561 19.9282C25.7088 19.9282 19.5685 26.0684 19.5685 33.6158V66.4661C19.5685 74.0134 25.7088 80.1537 33.2561 80.1537H66.1064C73.6538 80.1537 79.7941 74.0134 79.7941 66.4661V33.6158C79.7941 26.0684 73.6538 19.9282 66.1064 19.9282H33.2561Z" fill="white"/>
</g>
<defs>
<radialGradient id="paint0_radial" cx="0" cy="0" r="1" gradientUnits="userSpaceOnUse" gradientTransform="translate(37.0339 99.4122) scale(122.912)">
<stop stop-color="#FFDD55"/>
<stop offset="0.328" stop-color="#FF543F"/>
<stop offset="0.348" stop-color="#FC5245"/>
<stop offset="0.504" stop-color="#E64771"/>
<stop offset="0.643" stop-color="#D53E91"/>
<stop offset="0.761" stop-color="#CC39A4"/>
<stop offset="0.841" stop-color="#C837AB"/>
</radialGradient>
<radialGradient id="paint1_radial" cx="0" cy="0" r="1" gradientUnits="userSpaceOnUse" gradientTransform="translate(16.2452 -0.49289) scale(81.6138 54.3793)">
<stop stop-color="#4168C9"/>
<stop offset="0.999" stop-color="#4168C9" stop-opacity="0"/>
</radialGradient>
<clipPath id="clip0">
<rect width="99" height="99" fill="white"/>
</clipPath>
</defs>
</svg>
