<svg width="100" height="100" viewBox="0 0 100 100" fill="none" xmlns="http://www.w3.org/2000/svg">
<g clip-path="url(#clip0)">
<path d="M74.8292 35.6609L49.7392 47.3616C49.128 47.5718 48.5678 47.9082 48.095 48.3489C47.6222 48.7896 47.2473 49.3248 46.9946 49.9198C46.742 50.5147 46.6172 51.1562 46.6284 51.8025C46.6397 52.4487 46.7866 53.0855 47.0598 53.6713C47.3329 54.2571 47.7262 54.779 48.214 55.203C48.7018 55.627 49.2734 55.9438 49.8915 56.1326C50.5096 56.3215 51.1605 56.3783 51.802 56.2994C52.4435 56.2204 53.0613 56.0075 53.6152 55.6744L87.171 40.0257L85.0216 35.416C73.5333 10.7772 51.5663 5.46668 34.1738 13.5776C29.4289 15.7568 25.1606 18.8511 21.6137 22.6832C18.0668 26.5152 15.3109 31.0096 13.5041 35.9087C11.6972 40.8079 10.8749 46.0155 11.0843 51.2331C11.2936 56.4507 12.5305 61.5757 14.7241 66.3144C21.1838 80.1684 40.2115 98.4713 73.3064 83.0376L97.6263 71.6961L93.7503 63.3832L69.4304 74.7248C44.1867 86.4971 29.3734 75.2269 23.3435 62.2947C21.6358 58.6794 20.6617 54.7614 20.4774 50.7673C20.2931 46.7732 20.9024 42.7821 22.2699 39.0249C23.6374 35.2677 25.7362 31.8189 28.4447 28.8778C31.1532 25.9368 34.4179 23.5619 38.0498 21.8904C41.3535 20.2846 44.9492 19.3674 48.6183 19.1944C52.2875 19.0215 55.9535 19.5965 59.3935 20.8845C62.8336 22.1724 65.9759 24.1465 68.6294 26.6867C71.2829 29.2269 73.3922 32.2801 74.8292 35.6609Z" fill="#4A98FF"/>
</g>
<defs>
<clipPath id="clip0">
<rect width="100" height="100" fill="white"/>
</clipPath>
</defs>
</svg>
