<svg width="92" height="93" viewBox="0 0 92 93" fill="none" xmlns="http://www.w3.org/2000/svg">
<g clip-path="url(#clip0)">
<path d="M0.307556 44.4332C0.307556 23.7653 0.307556 13.4313 6.72827 7.01056C13.149 0.589844 23.483 0.589844 44.151 0.589844H47.9634C68.6314 0.589844 78.9655 0.589844 85.386 7.01056C91.8068 13.4313 91.8068 23.7653 91.8068 44.4332V48.2457C91.8068 68.9137 91.8068 79.2478 85.386 85.6683C78.9655 92.0891 68.6314 92.0891 47.9634 92.0891H44.151C23.483 92.0891 13.149 92.0891 6.72827 85.6683C0.307556 79.2478 0.307556 68.9137 0.307556 48.2457L0.307556 44.4332Z" fill="#2787F5"/>
<path fill-rule="evenodd" clip-rule="evenodd" d="M25.0903 29.1833H18.417C16.5103 29.1833 16.1289 30.0808 16.1289 31.0701C16.1289 32.8374 18.3914 41.6021 26.6632 53.1941C32.1777 61.1105 39.9471 65.4018 47.0172 65.4018C51.2591 65.4018 51.7839 64.4487 51.7839 62.807V56.8237C51.7839 54.9175 52.1857 54.537 53.5289 54.537C54.5188 54.537 56.2155 55.0319 60.1748 58.8487C64.6996 63.3724 65.4455 65.4018 67.9905 65.4018H74.6639C76.5707 65.4018 77.524 64.4487 76.974 62.5678C76.3722 60.6932 74.2119 57.9732 71.3453 54.7492C69.7898 52.9114 67.4568 50.9323 66.7498 49.9426C65.76 48.6704 66.0427 48.1048 66.7498 46.974C66.7498 46.974 74.8802 35.5233 75.7287 31.6359C76.1528 30.2221 75.7287 29.1833 73.7106 29.1833H67.0372C65.3405 29.1833 64.5582 30.0808 64.1338 31.0701C64.1338 31.0701 60.7404 39.3401 55.9328 44.7121C54.3773 46.267 53.6703 46.7619 52.8219 46.7619C52.3977 46.7619 51.7837 46.267 51.7837 44.8536V31.6359C51.7837 29.9394 51.2913 29.1833 49.8771 29.1833H39.3903C38.3301 29.1833 37.6923 29.9706 37.6923 30.7169C37.6923 32.325 40.096 32.696 40.3438 37.2197V47.0448C40.3438 49.1988 39.9546 49.5894 39.1063 49.5894C36.844 49.5894 31.3409 41.2824 28.077 31.7772C27.4375 29.9296 26.7958 29.1833 25.0903 29.1833V29.1833Z" fill="white"/>
</g>
<defs>
<clipPath id="clip0">
<rect width="91.4993" height="91.4993" fill="white" transform="translate(0.307556 0.589844)"/>
</clipPath>
</defs>
</svg>
