<svg width="101" height="101" viewBox="0 0 101 101" fill="none" xmlns="http://www.w3.org/2000/svg">
<g clip-path="url(#clip0)">
<path d="M98.5673 26.7693C97.4173 22.4959 94.0481 19.1274 89.7755 17.9767C81.9692 15.8404 50.7442 15.8404 50.7442 15.8404C50.7442 15.8404 19.52 15.8404 11.7137 17.8953C7.52327 19.0452 4.07184 22.4967 2.92187 26.7693C0.867752 34.5748 0.867752 50.7627 0.867752 50.7627C0.867752 50.7627 0.867752 67.032 2.92187 74.756C4.0726 79.0286 7.44108 82.3979 11.7145 83.5486C19.6021 85.6849 50.745 85.6849 50.745 85.6849C50.745 85.6849 81.9692 85.6849 89.7755 83.63C94.0488 82.4801 97.4173 79.1108 98.568 74.8382C100.622 67.032 100.622 50.8449 100.622 50.8449C100.622 50.8449 100.704 34.5748 98.5673 26.7693Z" fill="#FF0000"/>
<path d="M40.8024 65.7177L66.7678 50.7627L40.8024 35.8077V65.7177Z" fill="white"/>
</g>
<defs>
<clipPath id="clip0">
<rect width="99.7548" height="99.7548" fill="white" transform="translate(0.867737 0.838013)"/>
</clipPath>
</defs>
</svg>
